<?xml version="1.0" encoding="UTF-8" standalone="no"?>
<!-- Created with Inkscape (http://www.inkscape.org/) -->

<svg
   width="820"
   height="462"
   viewBox="0 0 216.95833 122.2375"
   version="1.1"
   id="svg5"
   inkscape:version="1.1 (c68e22c387, 2021-05-23)"
   sodipodi:docname="Day_Off.svg"
   xmlns:inkscape="http://www.inkscape.org/namespaces/inkscape"
   xmlns:sodipodi="http://sodipodi.sourceforge.net/DTD/sodipodi-0.dtd"
   xmlns="http://www.w3.org/2000/svg"
   xmlns:svg="http://www.w3.org/2000/svg">
  <sodipodi:namedview
     id="namedview7"
     pagecolor="#ffffff"
     bordercolor="#111111"
     borderopacity="1"
     inkscape:pageshadow="0"
     inkscape:pageopacity="0"
     inkscape:pagecheckerboard="1"
     inkscape:document-units="px"
     showgrid="false"
     inkscape:zoom="0.51298701"
     inkscape:cx="334.31646"
     inkscape:cy="368.43038"
     inkscape:window-width="1366"
     inkscape:window-height="713"
     inkscape:window-x="0"
     inkscape:window-y="0"
     inkscape:window-maximized="1"
     inkscape:current-layer="layer1-8" />
  <defs
     id="defs2">
    <rect
       x="138.68056"
       y="92.746623"
       width="811.37345"
       height="568.48899"
       id="rect3224" />
  </defs>
  <g
     inkscape:label="圖層 1"
     inkscape:groupmode="layer"
     id="layer1">
    <g
       inkscape:label="圖層 1"
       id="layer1-8"
       transform="translate(-28.910788,-15.985623)">
      <text
         xml:space="preserve"
         transform="scale(0.26458333)"
         id="text3222"
         style="font-style:normal;font-weight:normal;font-size:40px;line-height:1.25;font-family:sans-serif;white-space:pre;shape-inside:url(#rect3224);fill:#000000;fill-opacity:1;stroke:none" />
      <g
         aria-label="Day Off"
         id="text7168"
         style="font-size:52.9167px;line-height:1.25;stroke-width:0.264583">
        <path
           d="m 35.146896,72.610333 c 0,0 4.392086,-0.635001 7.302505,-1.534585 2.857502,-0.846667 4.974169,-1.640417 7.302504,-3.016251 2.222502,-1.217085 4.286253,-2.698752 6.297087,-4.392086 l 2.540002,-2.857502 c 0.687917,-1.005417 1.270001,-1.905001 1.905001,-3.175002 0.264583,-0.952501 0.899584,-2.063751 1.058334,-3.175002 0.211667,-1.217084 0.15875,-2.540002 0.47625,-3.757086 -0.3175,-1.640417 -0.47625,-3.227918 -0.846667,-4.550836 -0.423334,-1.481667 -0.899584,-2.645835 -1.799168,-3.862919 -2.116668,-1.957917 -4.180419,-3.915835 -6.826254,-5.132919 -2.751668,-1.481668 -5.185836,-2.010835 -7.672921,-2.592919 -2.857502,-0.582083 -5.185837,-1.058334 -7.937505,-1.587501 l -2.910418,-0.05292 -1.270001,0.264583 c -0.635,2.751669 -0.79375,5.503337 -0.79375,7.778755 -0.264584,2.540001 -0.158751,5.820837 -0.158751,5.820837 -0.15875,2.645835 -0.15875,6.932087 -0.15875,6.932087 v 4.074586 c 0,8.995839 0.211667,10.477506 0.211667,10.477506 0,0 0.211667,2.434168 1.005417,3.704169 z M 48.852321,63.03241 c -1.428751,0.899584 -2.540001,1.375834 -3.545418,1.746251 0,0 -0.899584,0.47625 -3.122086,0.846667 0,0 -1.217084,0.264584 -2.751668,0.264584 -0.952501,0 -2.275418,-0.582084 -2.275418,-0.582084 l -0.3175,-7.249587 0.105833,-4.18042 c 0,0 0,-3.439585 0.211667,-5.238753 0.15875,-1.799168 0.15875,-3.386669 0.3175,-5.185836 0,-1.799168 0.211667,-3.439586 0.635001,-4.921253 2.010834,-0.15875 3.968752,0 5.873753,0.582083 1.640418,0.582084 3.810002,0.899584 5.503337,1.799168 1.481667,0.793751 3.175002,1.693335 4.709586,3.016252 0.635,0.635 1.322917,1.481668 1.799168,2.275418 0.370417,0.740834 0.687917,2.381251 0.687917,3.386669 v 4.074586 c -0.529167,1.746251 -1.746251,3.651252 -2.381252,4.603752 0,0 -1.217084,1.322918 -2.698751,2.751669 0,0 -1.270001,1.11125 -2.751669,2.010834 z"
           style="font-family:RiiTegakiN;-inkscape-font-specification:RiiTegakiN;fill:#2b1100"
           id="path976" />
        <path
           d="m 73.088069,72.345749 2.116668,-0.370417 c 0.899584,-0.529167 1.693334,-1.164167 2.540002,-1.905001 0.846667,-0.635 1.534584,-1.587501 2.063751,-2.645835 0.582084,-0.899584 1.058334,-1.799168 1.746251,-2.592918 h 0.211667 l 1.852084,2.963335 c 1.322918,1.111251 2.540002,1.640418 3.598336,1.534584 1.005417,0 2.063751,-0.15875 2.963335,-0.582083 0.740834,-0.15875 1.640417,-0.740834 2.487085,-1.375835 l 1.11125,-1.640417 v -1.217084 l -1.11125,-1.058334 c -1.693335,0 -2.963335,0.423333 -4.074586,1.428751 0,0 -0.952501,0.105833 -1.852085,-0.423334 -0.264583,-1.428751 -0.79375,-3.227919 -1.058334,-5.13292 -0.370416,-1.905001 -0.582083,-3.386668 -0.846667,-5.397503 -0.47625,-1.905001 -1.164167,-3.651252 -1.957918,-4.921253 -0.9525,-1.111251 -2.116668,-2.010834 -3.333752,-2.328335 -1.217084,-0.264583 -2.487084,-0.264583 -3.386668,0.105834 -0.952501,0.582083 -1.852085,1.534584 -2.751669,2.381251 -1.058334,1.481668 -1.799167,2.963335 -2.698751,4.445003 -0.793751,1.534584 -1.481668,3.069168 -2.010835,4.709586 -0.582083,1.693334 -1.11125,3.492502 -1.217084,5.238753 0.105834,1.111251 0.264584,2.434168 0.423334,3.333752 0.211667,1.058334 0.529167,2.063751 1.005417,2.910419 0.635,0.79375 1.322917,1.481667 1.957918,1.799167 0.635,0.370417 1.428751,0.582084 2.222501,0.740834 z m 1.217084,-5.027086 -0.899584,0.529167 -0.582083,-0.476251 -0.793751,-2.910418 c 0,-1.534584 0.211667,-2.751668 0.687917,-3.968752 0.317501,-1.164168 0.635001,-2.275418 1.111251,-3.492502 0.529167,-1.164168 1.005417,-2.434169 1.799168,-3.492503 0.846667,-1.058334 1.587501,-1.957917 2.434168,-2.804585 l 1.058334,0.370417 0.79375,1.799168 -0.582083,5.820837 c -0.529167,1.005417 -0.793751,1.957918 -1.322918,3.016252 -0.423333,1.005417 -0.899584,1.957918 -1.640417,2.963335 -0.793751,1.005417 -1.270001,1.852084 -2.063752,2.645835 z"
           style="font-family:RiiTegakiN;-inkscape-font-specification:RiiTegakiN;fill:#2b1100"
           id="path978" />
        <path
           d="m 100.18139,78.007836 h 1.32292 c 2.43417,-2.857502 5.08,-5.556254 7.51417,-8.572505 2.48709,-2.328335 4.81542,-5.238753 7.19667,-8.255005 2.32834,-3.016252 4.86834,-7.090838 7.62001,-9.736673 0.15875,-0.899584 0,-1.587501 -0.42334,-2.116668 l -1.27,-0.740834 -1.64041,0.211667 c -1.42875,0.846667 -2.43417,1.957918 -3.59834,3.175002 -1.05833,1.217084 -2.32833,2.963335 -3.28083,4.233336 -0.89959,1.217084 -2.11667,3.016252 -3.06917,4.233336 -0.79375,-1.481668 -1.79917,-2.645835 -2.27542,-4.921253 -0.52917,-1.270001 -1.00542,-2.645835 -1.32292,-4.233336 -0.3175,-1.428751 -0.635,-2.857502 -1.00542,-4.286252 l -1.37583,-0.846668 h -1.21708 c -0.74084,0.15875 -1.32292,0.687917 -1.53459,1.375835 0.15875,1.957917 0.3175,3.757085 0.79375,5.503336 0.3175,1.957918 0.9525,4.603753 1.74625,6.191254 0.79375,1.587501 1.69334,3.175002 2.85751,4.603753 -1.53459,1.640417 -2.69876,3.016251 -2.69876,3.016251 -1.05833,1.217085 -2.16958,2.645835 -3.175,3.862919 -1.16417,1.270001 -2.2225,2.698752 -3.069167,4.074586 -0.105833,0.899584 0,1.587501 0.370417,2.169585 z"
           style="font-family:RiiTegakiN;-inkscape-font-specification:RiiTegakiN;fill:#2b1100"
           id="path980" />
        <path
           d="m 167.54417,72.769083 c 1.5875,0 3.38667,-0.211667 4.92125,-0.582084 1.64042,-0.47625 3.06917,-1.111251 4.28625,-2.222501 1.27001,-1.005418 2.59292,-2.116668 3.81001,-3.280836 1.16416,-1.587501 2.59292,-3.227918 3.81,-5.027086 1.21708,-1.534584 2.06375,-3.175002 2.80458,-5.080003 0.74084,-2.010835 1.21709,-3.915836 1.69334,-5.820837 0.3175,-1.693334 0.21167,-3.439585 -0.10583,-5.027086 -0.21167,-1.799168 -0.95251,-2.857502 -2.01084,-4.392086 -1.42875,-2.222502 -2.69875,-3.386669 -4.86834,-4.709586 -1.69333,-1.164168 -3.59833,-2.116668 -6.24417,-2.963335 0,0 -2.59291,-0.476251 -5.76792,-0.529167 0,0 -1.85208,0 -3.4925,0.9525 -1.00542,0.47625 -2.01083,1.111251 -2.80458,1.746251 -0.89959,0.582084 -1.69334,1.481668 -2.48709,2.540002 -1.21708,1.534584 -2.48708,3.175002 -3.33375,4.921253 -0.84667,1.746251 -1.5875,3.492502 -2.11667,5.397503 -0.52916,1.852084 -0.635,3.968752 -0.79375,6.191254 0.15875,1.481667 0,2.857501 0.10584,4.074585 0.21166,1.270001 0.37041,3.386669 0.89958,4.49792 0.68792,1.587501 1.48167,3.016252 1.48167,3.016252 0.84666,1.27 1.79916,2.275418 2.8575,3.175001 1.05833,1.005418 2.27542,1.693335 3.43958,2.222502 1.48167,0.635 2.69876,0.687917 3.91584,0.899584 z m 5.23875,-5.76792 -1.48166,0.79375 c -0.84667,0 -2.85751,0.264584 -3.65126,0.05292 -0.74083,0 -2.59292,-0.793751 -2.59292,-0.793751 l -1.5875,-1.428751 c -1.42875,-1.534584 -2.32833,-3.439585 -2.32833,-3.439585 -0.635,-1.746251 -0.79375,-3.280835 -0.84667,-4.497919 -0.15875,-1.481668 0,-2.804585 0.15875,-4.392086 0.21167,-1.428751 0.42334,-2.751669 0.52917,-3.968753 0.42333,-1.375834 0.9525,-2.645835 1.69333,-3.757085 0.52917,-1.058334 1.16417,-2.116668 1.79917,-3.175002 0.52917,-1.111251 2.11667,-2.751669 3.75709,-3.651252 l 2.38125,-0.264584 c 1.48167,0 3.12208,0.15875 4.33917,0.370417 1.42875,0.423334 2.69875,1.058334 3.86292,1.693334 1.21708,0.687917 2.27541,1.852085 3.59833,2.910419 0.52917,1.058334 1.05834,2.487085 1.42875,3.862919 0.10584,1.534584 -0.0529,2.592918 -0.37041,3.757085 -0.58209,1.270001 -0.89959,2.592919 -1.21709,3.598336 -0.47625,1.534584 -1.53458,3.016252 -2.38125,4.233336 -1.05833,1.27 -1.95792,2.804585 -2.8575,3.968752 -1.11125,1.481668 -2.8575,2.963335 -4.23334,4.127503 z"
           style="font-family:RiiTegakiN;-inkscape-font-specification:RiiTegakiN;fill:#2b1100"
           id="path982" />
        <path
           d="m 204.95617,72.239916 c 1.21708,0.211666 2.16958,-0.105834 2.75167,-1.322918 -0.15875,-1.640417 -0.52917,-3.227918 -0.89959,-4.815419 -0.47625,-1.587501 -0.84667,-3.016252 -1.16417,-4.65667 -0.3175,-1.534584 -0.37041,-3.227918 -0.52916,-4.868336 0,-2.222501 -0.21167,-3.810002 -0.21167,-3.810002 l 6.61459,0.635 c 1.21708,0 2.32833,-0.15875 3.22792,-0.582084 l 0.47625,-1.322917 v -1.058334 c -1.11125,-0.582084 -2.11667,-1.005417 -3.33376,-1.164167 -1.21708,-0.211667 -2.32833,-0.211667 -3.4925,-0.370417 -1.21708,-0.211667 -2.38125,-0.423334 -3.43958,-0.793751 l -0.15875,-0.582083 c 0,-1.481668 0.15875,-2.645835 0.37041,-3.810003 0,0 0.3175,-1.005417 0.635,-2.328335 0.42334,-1.693334 1.16417,-3.227918 1.16417,-3.227918 l 1.05834,-1.799168 c 1.48166,-0.3175 2.38125,0.952501 2.96333,1.481668 0.47625,0.79375 1.48167,1.957918 2.06375,2.751668 l 1.905,0.740834 1.32292,-1.058334 c 0.21167,-0.952501 0.15875,-1.799168 -0.37042,-2.540002 0,0 -0.89958,-1.587501 -1.48166,-2.381251 -0.68792,-1.058334 -1.42875,-1.799168 -2.06375,-2.434168 -1.11126,-0.846667 -2.59292,-1.322918 -2.59292,-1.322918 0,0 -1.5875,-0.370417 -2.43417,0 0,0 -1.64042,0.370417 -2.11667,0.952501 -1.21708,1.322917 -2.43417,2.751668 -3.06917,4.392086 -0.84666,1.746251 -1.79917,3.545419 -2.01083,5.503336 0,0 -0.52917,2.116668 -0.9525,4.709587 l -3.33375,-0.687917 -1.58751,0.211666 -1.21708,1.481668 0.47625,1.375834 c 0.84667,0.529167 1.79917,1.111251 2.80459,1.375834 1.00541,0.211667 2.01083,0.582084 2.8575,0.740834 0.42333,2.434168 0.9525,5.185836 1.21708,7.302504 0.15875,2.116668 0.68792,4.33917 1.16417,6.455838 0.52917,2.169584 1.05833,4.233335 1.905,5.873753 z"
           style="font-family:RiiTegakiN;-inkscape-font-specification:RiiTegakiN;fill:#2b1100"
           id="path984" />
        <path
           d="m 231.41442,72.239916 c 1.21708,0.211666 2.16958,-0.105834 2.75167,-1.322918 -0.15875,-1.640417 -0.52917,-3.227918 -0.89959,-4.815419 -0.47625,-1.587501 -0.84666,-3.016252 -1.16416,-4.65667 -0.3175,-1.534584 -0.37042,-3.227918 -0.52917,-4.868336 0,-2.222501 -0.21167,-3.810002 -0.21167,-3.810002 l 6.61459,0.635 c 1.21708,0 2.32833,-0.15875 3.22792,-0.582084 l 0.47625,-1.322917 v -1.058334 c -1.11125,-0.582084 -2.11667,-1.005417 -3.33375,-1.164167 -1.21709,-0.211667 -2.32834,-0.211667 -3.49251,-0.370417 -1.21708,-0.211667 -2.38125,-0.423334 -3.43958,-0.793751 l -0.15875,-0.582083 c 0,-1.481668 0.15875,-2.645835 0.37042,-3.810003 0,0 0.3175,-1.005417 0.635,-2.328335 0.42333,-1.693334 1.16416,-3.227918 1.16416,-3.227918 l 1.05834,-1.799168 c 1.48167,-0.3175 2.38125,0.952501 2.96333,1.481668 0.47625,0.79375 1.48167,1.957918 2.06375,2.751668 l 1.90501,0.740834 1.32291,-1.058334 c 0.21167,-0.952501 0.15875,-1.799168 -0.37041,-2.540002 0,0 -0.89959,-1.587501 -1.48167,-2.381251 -0.68792,-1.058334 -1.42875,-1.799168 -2.06375,-2.434168 -1.11125,-0.846667 -2.59292,-1.322918 -2.59292,-1.322918 0,0 -1.5875,-0.370417 -2.43417,0 0,0 -1.64042,0.370417 -2.11667,0.952501 -1.21708,1.322917 -2.43417,2.751668 -3.06917,4.392086 -0.84666,1.746251 -1.79916,3.545419 -2.01083,5.503336 0,0 -0.52917,2.116668 -0.9525,4.709587 l -3.33375,-0.687917 -1.5875,0.211666 -1.21709,1.481668 0.47625,1.375834 c 0.84667,0.529167 1.79917,1.111251 2.80459,1.375834 1.00541,0.211667 2.01083,0.582084 2.8575,0.740834 0.42333,2.434168 0.9525,5.185836 1.21708,7.302504 0.15875,2.116668 0.68792,4.33917 1.16417,6.455838 0.52917,2.169584 1.05833,4.233335 1.905,5.873753 z"
           style="font-family:RiiTegakiN;-inkscape-font-specification:RiiTegakiN;fill:#2b1100"
           id="path986" />
      </g>
      <g
         aria-label="Generator"
         id="text52508"
         style="font-size:25.4px;line-height:1.25;font-family:'Standard Symbols PS';-inkscape-font-specification:'Standard Symbols PS';stroke-width:0.264582">
        <path
           d="m 85.895785,122.07676 c 1.2192,0 2.4384,-0.2032 3.5052,-0.7366 0.9144,-0.4826 4.0132,-2.4384 5.2324,-4.318 l 0.635,-1.2446 -0.3302,-1.1938 c -0.3302,-0.5842 -2.3114,-1.1938 -2.8448,-1.2446 -0.5334,0.0508 -0.7874,0.0254 -1.2954,-0.0508 l -4.3688,0.0762 -0.7874,0.7874 c -0.1016,0.7874 0.381,1.2446 1.27,1.4986 0,0 4.0386,0 4.4958,-0.0762 0,0 0.635,0.2032 0.6096,0.6096 -0.4572,0.508 -3.5052,3.2004 -5.4102,3.5814 -0.889,0.1524 -2.2098,-0.6858 -2.8194,-1.2954 -0.1778,-0.508 -0.4064,-1.016 -0.635,-1.6764 -0.2794,-1.1684 -0.0254,-3.0226 0.0254,-3.7592 0.0508,-0.9652 1.0922,-3.937 2.6416,-5.8674 1.016,-0.9652 1.9304,-1.3462 2.921,-1.5494 0.5334,-0.127 1.27,-0.127 1.9304,0 l 1.0414,1.4478 0.5334,0.1778 c 0.762,0.0762 1.2192,-0.127 1.4224,-0.6604 0,-0.889 -0.2286,-1.6002 -0.762,-2.2098 -0.6096,-0.6858 -1.27,-1.1176 -1.9304,-1.2954 -0.8382,-0.1524 -3.1242,-0.2032 -4.7752,0.6858 -1.2192,0.508 -2.3114,1.5494 -2.3114,1.5494 -0.7112,0.8382 -1.1938,1.6002 -1.803399,2.7432 -0.7112,1.5494 -1.6764,4.445 -1.651,6.4516 0.0254,1.7272 0.381,3.8608 1.0922,4.8006 0.3302,0.5588 0.6604,1.143 1.117599,1.524 0.7366,0.635 1.9812,1.2192 3.2512,1.2446 z"
           style="font-family:RiiTegakiN;-inkscape-font-specification:RiiTegakiN"
           id="path989" />
        <path
           d="m 103.47254,121.72116 c 0.5842,0 1.1938,0.0254 1.7272,-0.0508 0.5334,0 1.0922,-0.1778 1.6256,-0.3556 0.4572,-0.127 1.0668,-0.4572 1.4732,-0.762 l 0.5588,-0.9398 -0.127,-0.6604 -0.7112,-0.4572 c -0.635,0.127 -1.143,0.3302 -1.778,0.6096 -0.635,0.2794 -1.397,0.3556 -2.1082,0.3556 l -1.778,-0.127 c -0.8128,-0.254 -1.5748,-0.8636 -1.905,-1.4478 l 0.2032,-0.4826 0.8636,0.0762 c 0.635,0 1.2446,-0.0762 1.905,-0.2032 0.5334,-0.1016 1.0414,-0.2794 1.6764,-0.5588 0.5334,-0.2032 1.0668,-0.4826 1.5494,-0.9906 0.3556,-0.2794 0.6096,-0.635 0.762,-1.016 0.1016,-0.381 0.254,-0.762 0.381,-1.2446 0,-0.4572 0,-1.0668 0,-1.524 -0.127,-0.4572 -0.254,-0.9398 -0.508,-1.27 0,0 -0.6096,-0.4826 -0.9906,-0.7874 0,0 -0.7366,-0.2794 -1.0668,-0.381 -0.635,-0.1016 -1.1938,0 -1.651,0.1016 -0.508,0.1016 -1.0414,0.1778 -1.4478,0.4572 -0.635,0.2286 -1.2192,0.762 -1.651,1.1938 -0.736595,0.7366 -1.041395,1.3208 -1.041395,1.3208 -0.4064,0.5588 -0.8382,1.397 -1.1176,1.9304 -0.254,0.6096 -0.4572,1.27 -0.5334,1.9558 -0.0508,0.6604 0.0254,1.397 0.2794,1.9558 0.3302,0.5588 0.635,1.0668 0.9906,1.5748 0.4318,0.4572 0.8128,0.8128 1.371595,0.9652 0.4572,0.3302 1.4986,0.5588 1.4986,0.5588 0,0 0.9398,0.2032 1.5494,0.2032 z m 0.9906,-7.239 c 0,0 -0.6096,0.4064 -1.143,0.5334 -0.3302,0.0762 -0.7112,0.1778 -1.1684,0.2794 -0.4572,0.1016 -0.9398,0 -1.2446,-0.4064 l 0.3302,-1.0668 c 0.508,-0.5588 0.8636,-0.9144 1.3208,-1.4224 0.4318,-0.381 0.9398,-0.6858 1.4478,-0.889 0.5842,-0.1016 1.0668,0 1.4478,0.4826 l -0.0762,1.1176 c -0.2032,0.508 -0.4826,1.0922 -0.9144,1.3716 z"
           style="font-family:RiiTegakiN;-inkscape-font-specification:RiiTegakiN"
           id="path991" />
        <path
           d="m 120.66834,122.30536 h 0.8128 l 0.7366,-0.5588 c 0,-1.27 -0.1778,-6.2992 -0.381,-7.7978 -0.1778,-1.1938 -0.508,-2.5654 -1.1684,-3.6576 l -1.3462,-0.5588 c -0.6858,0 -1.2954,0.1778 -1.9558,0.5588 -0.7112,0.3302 -2.1844,1.8542 -2.921,2.7432 l 0.3556,-1.8288 0.2032,-1.397 c -0.2032,-0.254 -0.3302,-0.5588 -0.9398,-0.635 l -0.9398,0.1524 c -0.8382,1.2954 -1.4986,6.8072 -1.6002,8.1534 0,0 -0.2032,1.8288 -0.2794,3.2766 0.1016,0.9144 0.5588,1.0668 1.2446,1.1938 l 0.8128,-0.254 c 0,0 0.3556,-0.6096 0.635,-1.6764 0.2286,-0.7366 0.381,-1.7272 0.381,-1.7272 0.3048,-1.016 0.6604,-1.7018 1.016,-2.4638 0.254,-0.7112 0.889,-1.4478 1.3716,-2.1082 0,0 0.7112,-0.6096 1.4732,-0.9144 l 0.635,0.2286 c 0.4826,0.9652 0.6858,2.2098 0.6858,2.2098 0.1016,1.0668 0.2794,5.3848 0.381,6.4008 z"
           style="font-family:RiiTegakiN;-inkscape-font-specification:RiiTegakiN"
           id="path993" />
        <path
           d="m 130.34571,121.72116 c 0.5842,0 1.1938,0.0254 1.7272,-0.0508 0.5334,0 1.0922,-0.1778 1.6256,-0.3556 0.4572,-0.127 1.0668,-0.4572 1.4732,-0.762 l 0.5588,-0.9398 -0.127,-0.6604 -0.7112,-0.4572 c -0.635,0.127 -1.143,0.3302 -1.778,0.6096 -0.635,0.2794 -1.397,0.3556 -2.1082,0.3556 l -1.778,-0.127 c -0.8128,-0.254 -1.5748,-0.8636 -1.905,-1.4478 l 0.2032,-0.4826 0.8636,0.0762 c 0.635,0 1.2446,-0.0762 1.905,-0.2032 0.5334,-0.1016 1.0414,-0.2794 1.6764,-0.5588 0.5334,-0.2032 1.0668,-0.4826 1.5494,-0.9906 0.3556,-0.2794 0.6096,-0.635 0.762,-1.016 0.1016,-0.381 0.254,-0.762 0.381,-1.2446 0,-0.4572 0,-1.0668 0,-1.524 -0.127,-0.4572 -0.254,-0.9398 -0.508,-1.27 0,0 -0.6096,-0.4826 -0.9906,-0.7874 0,0 -0.7366,-0.2794 -1.0668,-0.381 -0.635,-0.1016 -1.1938,0 -1.651,0.1016 -0.508,0.1016 -1.0414,0.1778 -1.4478,0.4572 -0.635,0.2286 -1.2192,0.762 -1.651,1.1938 -0.7366,0.7366 -1.0414,1.3208 -1.0414,1.3208 -0.4064,0.5588 -0.8382,1.397 -1.1176,1.9304 -0.254,0.6096 -0.4572,1.27 -0.5334,1.9558 -0.0508,0.6604 0.0254,1.397 0.2794,1.9558 0.3302,0.5588 0.635,1.0668 0.9906,1.5748 0.4318,0.4572 0.8128,0.8128 1.3716,0.9652 0.4572,0.3302 1.4986,0.5588 1.4986,0.5588 0,0 0.9398,0.2032 1.5494,0.2032 z m 0.9906,-7.239 c 0,0 -0.6096,0.4064 -1.143,0.5334 -0.3302,0.0762 -0.7112,0.1778 -1.1684,0.2794 -0.4572,0.1016 -0.9398,0 -1.2446,-0.4064 l 0.3302,-1.0668 c 0.508,-0.5588 0.8636,-0.9144 1.3208,-1.4224 0.4318,-0.381 0.9398,-0.6858 1.4478,-0.889 0.5842,-0.1016 1.0668,0 1.4478,0.4826 l -0.0762,1.1176 c -0.2032,0.508 -0.4826,1.0922 -0.9144,1.3716 z"
           style="font-family:RiiTegakiN;-inkscape-font-specification:RiiTegakiN"
           id="path995" />
        <path
           d="m 140.1501,122.00056 0.5334,-0.1524 c 0.3556,-0.508 0.5334,-1.1176 0.4318,-1.905 0,0 0.0508,-1.143 0.1016,-2.0828 0.0254,-0.6858 0.254,-2.54 0.635,-3.048 0.3048,-0.4826 0.6096,-0.762 0.9652,-1.016 0.5334,-0.2032 1.0668,-0.3048 1.0668,-0.3048 0.889,-0.127 1.7526,0 1.7526,0 0.508,0.127 0.9652,0.3048 1.524,0.6096 h 0.6858 l 0.635,-0.5334 -0.254,-0.8128 c -0.508,-0.5842 -1.0414,-0.9398 -1.6002,-1.143 -0.6096,-0.1778 -1.27,-0.3048 -1.905,-0.381 0,0 -1.1176,0.0762 -1.6764,0.0762 -0.5842,0.127 -1.143,0.3048 -1.524,0.6858 l -0.1016,-0.0762 -0.1778,-2.032 -0.7112,-0.3302 -0.7112,0.1016 c -0.508,0.6858 -0.8128,1.397 -0.8128,2.3876 0,0.9652 -0.0762,2.6416 -0.0762,2.6416 -0.0762,0.889 -0.1524,3.302 -0.2032,4.1402 0,0.5334 0,1.6002 0,1.6002 0.1016,1.016 0.5334,1.1938 0.5334,1.1938 z"
           style="font-family:RiiTegakiN;-inkscape-font-specification:RiiTegakiN"
           id="path997" />
        <path
           d="m 153.61206,121.79736 1.016,-0.1778 c 0.4318,-0.254 0.8128,-0.5588 1.2192,-0.9144 0.4064,-0.3048 0.7366,-0.762 0.9906,-1.27 0.2794,-0.4318 0.508,-0.8636 0.8382,-1.2446 h 0.1016 l 0.889,1.4224 c 0.635,0.5334 1.2192,0.7874 1.7272,0.7366 0.4826,0 0.9906,-0.0762 1.4224,-0.2794 0.3556,-0.0762 0.7874,-0.3556 1.1938,-0.6604 l 0.5334,-0.7874 v -0.5842 l -0.5334,-0.508 c -0.8128,0 -1.4224,0.2032 -1.9558,0.6858 0,0 -0.4572,0.0508 -0.889,-0.2032 -0.127,-0.6858 -0.381,-1.5494 -0.508,-2.4638 -0.1778,-0.9144 -0.2794,-1.6256 -0.4064,-2.5908 -0.2286,-0.9144 -0.5588,-1.7526 -0.9398,-2.3622 -0.4572,-0.5334 -1.016,-0.9652 -1.6002,-1.1176 -0.5842,-0.127 -1.1938,-0.127 -1.6256,0.0508 -0.4572,0.2794 -0.889,0.7366 -1.3208,1.143 -0.508,0.7112 -0.8636,1.4224 -1.2954,2.1336 -0.381,0.7366 -0.7112,1.4732 -0.9652,2.2606 -0.2794,0.8128 -0.5334,1.6764 -0.5842,2.5146 0.0508,0.5334 0.127,1.1684 0.2032,1.6002 0.1016,0.508 0.254,0.9906 0.4826,1.397 0.3048,0.381 0.635,0.7112 0.9398,0.8636 0.3048,0.1778 0.6858,0.2794 1.0668,0.3556 z m 0.5842,-2.413 -0.4318,0.254 -0.2794,-0.2286 -0.381,-1.397 c 0,-0.7366 0.1016,-1.3208 0.3302,-1.905 0.1524,-0.5588 0.3048,-1.0922 0.5334,-1.6764 0.254,-0.5588 0.4826,-1.1684 0.8636,-1.6764 0.4064,-0.508 0.762,-0.9398 1.1684,-1.3462 l 0.508,0.1778 0.381,0.8636 -0.2794,2.794 c -0.254,0.4826 -0.381,0.9398 -0.635,1.4478 -0.2032,0.4826 -0.4318,0.9398 -0.7874,1.4224 -0.381,0.4826 -0.6096,0.889 -0.9906,1.27 z"
           style="font-family:RiiTegakiN;-inkscape-font-specification:RiiTegakiN"
           id="path999" />
        <path
           d="m 171.97625,122.00056 3.2004,-0.3302 0.889,-0.6858 -0.0762,-1.397 c -0.508,-0.4572 -1.3462,-0.2032 -1.905,-0.0762 -0.6096,0.127 -1.4732,0.3048 -2.7432,0 l -0.4826,-0.9652 c 0,-0.7112 0.0762,-1.4478 0.1524,-2.1336 0,0 0.1524,-1.0668 0.3048,-1.9812 0,0 0.1778,-1.016 0.381,-2.0066 l 1.651,-0.1778 c 1.016,0.0254 1.8034,0 2.2606,0 0.4572,0 0.8382,-0.2794 1.016,-0.762 l -0.0762,-0.635 c -0.4572,-0.4572 -0.9144,-0.635 -1.4732,-0.7366 -0.5334,0 -0.8128,0 -1.3716,-0.0762 l -1.397,-0.127 c 0,0 0.0762,-0.635 0.2032,-1.2954 l -0.0508,-0.8382 -0.5334,-0.4826 c -0.4064,-0.1524 -0.8382,0 -1.0922,0.2286 -0.254,0.381 -0.4064,1.0414 -0.4064,1.0414 -0.127,0.3556 -0.381,0.9652 -0.5334,1.4224 l -0.9906,0.0508 -1.905,-0.0508 c -0.5588,-0.127 -1.4478,0.127 -1.8542,0.6096 l 0.2286,1.4732 1.1938,0.2286 1.6256,0.0762 c 0,0 0.6858,-0.0254 1.0668,0.1524 l -0.6858,4.7498 c -0.0762,0.9652 -0.1524,1.5494 0,2.159 0,0.508 0.4826,1.0668 0.7366,1.524 0.889,0.7874 2.1336,0.8636 2.667,1.0414 z"
           style="font-family:RiiTegakiN;-inkscape-font-specification:RiiTegakiN"
           id="path1001" />
        <path
           d="m 182.568,122.25456 c 0.7366,0 1.3462,-0.254 2.032,-0.4572 1.0668,-0.3048 2.9972,-2.3622 3.4544,-2.9972 0.6604,-0.635 2.0574,-3.5306 2.2352,-4.3942 0.1778,-0.889 0.1778,-2.7432 -0.9144,-3.4798 -0.4318,-0.508 -1.3462,-1.0922 -1.9812,-1.2192 -0.7366,0 -2.8702,0.127 -3.9624,0.6604 -0.7366,0.2794 -1.1938,0.7874 -1.651,1.27 -0.508,0.5334 -1.905,2.54 -2.2098,3.429 -0.254,0.6604 -0.5334,1.27 -0.635,1.9812 -0.1524,0.6604 -0.2032,1.5748 -0.0254,2.286 0.127,0.889 1.0922,2.1844 2.286,2.5908 0.7112,0.2286 1.3716,0.3302 1.3716,0.3302 z m 0.3048,-2.1336 h -0.508 c -0.5588,-0.3048 -0.9144,-0.635 -1.1176,-1.1938 0,-0.5588 -0.0254,-1.0922 0,-1.651 0.0254,-0.7874 0.9398,-2.413 1.3208,-2.8702 0.5842,-1.1176 2.1844,-2.3622 3.2004,-2.6416 l 1.7526,0.127 0.5334,0.7112 c 0.2794,0.9144 -0.4318,2.5908 -0.6096,3.0226 -0.3302,0.4826 -1.651,2.3114 -2.1336,2.7686 -0.4318,0.4572 -0.889,0.889 -2.4384,1.7272 z"
           style="font-family:RiiTegakiN;-inkscape-font-specification:RiiTegakiN"
           id="path1003" />
        <path
           d="m 194.78539,122.00056 0.5334,-0.1524 c 0.3556,-0.508 0.5334,-1.1176 0.4318,-1.905 0,0 0.0508,-1.143 0.1016,-2.0828 0.0254,-0.6858 0.254,-2.54 0.635,-3.048 0.3048,-0.4826 0.6096,-0.762 0.9652,-1.016 0.5334,-0.2032 1.0668,-0.3048 1.0668,-0.3048 0.889,-0.127 1.7526,0 1.7526,0 0.508,0.127 0.9652,0.3048 1.524,0.6096 h 0.6858 l 0.635,-0.5334 -0.254,-0.8128 c -0.508,-0.5842 -1.0414,-0.9398 -1.6002,-1.143 -0.6096,-0.1778 -1.27,-0.3048 -1.905,-0.381 0,0 -1.1176,0.0762 -1.6764,0.0762 -0.5842,0.127 -1.143,0.3048 -1.524,0.6858 l -0.1016,-0.0762 -0.1778,-2.032 -0.7112,-0.3302 -0.7112,0.1016 c -0.508,0.6858 -0.8128,1.397 -0.8128,2.3876 0,0.9652 -0.0762,2.6416 -0.0762,2.6416 -0.0762,0.889 -0.1524,3.302 -0.2032,4.1402 0,0.5334 0,1.6002 0,1.6002 0.1016,1.016 0.5334,1.1938 0.5334,1.1938 z"
           style="font-family:RiiTegakiN;-inkscape-font-specification:RiiTegakiN"
           id="path1005" />
      </g>
    </g>
  </g>
</svg>
